<?xml version="1.0" encoding="utf-8"?>
<svg xmlns="http://www.w3.org/2000/svg" viewBox="10.207 21.716 79.346 57.317" enable-background="new 0 0 100 100">
  <path d="m56.5 22.3l-6.5 4.4-6.5-4.4c-19.5 5.5-32.4 32.4-32.4 32.4 15.8 24.6 38.9 20.5 38.9 20.5s23.1 4.1 38.9-20.5c0 0-12.9-26.9-32.4-32.4" fill="#493f35"/>
  <path d="m11.1 54.7c8.6 13.4 19.4 18.3 27.4 20 5.3-4.4 11.5-9.5 11.5-9.5v-38.5l-6.5-4.4c-19.5 5.5-32.4 32.4-32.4 32.4" fill="#3a3028"/>
  <path d="m74.1 53.2h-24.1-24.1c0 0-3.6 24.6 24.1 24.6 27.7-.1 24.1-24.6 24.1-24.6" fill="#fcb470"/>
  <path d="m74.1 53.2h-24.1v24.6c27.7-.1 24.1-24.6 24.1-24.6" fill="#ffc28f"/>
  <path d="m55.2 61.3c0 0-.5 3.3 6.8 3s5.3-6.9 5.3-6.9-.8-3.2-5.9-3.2-6.1 5.1-6.2 7.1" fill="#fff"/>
  <circle cx="61.6" cy="59.7" r="4.3" fill="#7a461b"/>
  <circle cx="61.6" cy="60.2" r="1.9" fill="#28211b"/>
  <g fill="#fff">
    <circle cx="60.2" cy="58.5" r="1.2"/>
    <path d="m44.8 61.3c0 0 .5 3.3-6.8 3s-5.3-6.9-5.3-6.9.8-3.2 5.9-3.2 6.1 5.1 6.2 7.1"/>
  </g>
  <circle cx="38.4" cy="59.7" r="4.3" fill="#7a461b"/>
  <circle cx="38.4" cy="60.2" r="1.9" fill="#28211b"/>
  <circle cx="39.8" cy="58.5" r="1.2" fill="#fff"/>
  <path d="m50 65.9h-3c0 0 1.6 1.3 3 1.8 1.4-.5 3-1.8 3-1.8h-3" fill="#db8f52"/>
  <path d="M50,70.6h-5.1c0,0,1.1,4.5,5.1,4.5s5.1-4.5,5.1-4.5H50z" fill="#d45c24"/>
  <path d="m50 75c1 0 1.8-.3 2.4-.6-.5-.7-1.4-1.2-2.4-1.2-1 0-1.9.5-2.4 1.2.6.4 1.4.6 2.4.6" fill="#ffa4ab"/>
</svg>